<?xml version="1.0" standalone="no"?>
<!DOCTYPE svg PUBLIC "-//W3C//DTD SVG 20010904//EN"
 "http://www.w3.org/TR/2001/REC-SVG-20010904/DTD/svg10.dtd">
<svg version="1.0" xmlns="http://www.w3.org/2000/svg"
 width="394.000000pt" height="394.000000pt" viewBox="0 0 394.000000 394.000000"
 preserveAspectRatio="xMidYMid meet">
<metadata>
Created by potrace 1.11, written by Peter Selinger 2001-2013
</metadata>
<g transform="translate(0.000000,394.000000) scale(0.100000,-0.100000)"
fill="#000000" stroke="none">
<path d="M0 1970 l0 -1970 1970 0 1970 0 0 1970 0 1970 -1970 0 -1970 0 0
-1970z m477 1823 c-31 -2 -83 -2 -115 0 -31 2 -5 3 58 3 63 0 89 -1 57 -3z
m3101 0 c-32 -2 -84 -2 -115 0 -32 2 -6 3 57 3 63 0 89 -1 58 -3z m-3040 -20
c-53 -2 -143 -2 -200 0 -57 1 -13 3 97 3 110 0 156 -2 103 -3z m245 0 c-18 -2
-48 -2 -65 0 -18 2 -4 4 32 4 36 0 50 -2 33 -4z m410 0 c-13 -2 -33 -2 -45 0
-13 2 -3 4 22 4 25 0 35 -2 23 -4z m400 0 c-13 -2 -33 -2 -45 0 -13 2 -3 4 22
4 25 0 35 -2 23 -4z m410 0 c-18 -2 -48 -2 -65 0 -18 2 -4 4 32 4 36 0 50 -2
33 -4z m390 0 c-13 -2 -33 -2 -45 0 -13 2 -3 4 22 4 25 0 35 -2 23 -4z m400 0
c-13 -2 -33 -2 -45 0 -13 2 -3 4 22 4 25 0 35 -2 23 -4z m415 0 c-16 -2 -40
-2 -55 0 -16 2 -3 4 27 4 30 0 43 -2 28 -4z m405 0 c-51 -2 -136 -2 -190 0
-54 1 -12 3 92 3 105 0 149 -2 98 -3z m-2743 -58 l0 -45 -127 -2 -128 -2 100
-6 100 -6 -100 -3 c-74 -3 -91 -6 -65 -11 l35 -7 -35 -2 c-29 -2 -32 -4 -15
-11 18 -8 18 -9 2 -9 -10 -1 -15 -5 -12 -11 4 -6 -6 -10 -22 -10 -22 0 -25 -2
-13 -10 10 -7 -11 -10 -70 -12 l-85 -1 60 -7 60 -7 -75 -3 c-66 -2 -70 -4 -35
-10 l40 -7 -45 -3 c-42 -2 -43 -3 -15 -10 l30 -8 -35 -2 c-33 -2 -33 -3 -10
-10 25 -8 25 -8 -5 -10 -30 -2 -30 -2 -5 -10 l25 -8 -25 -2 -25 -2 25 -8 25
-8 -25 -2 c-23 -1 -23 -2 -5 -10 l20 -9 -20 0 c-17 -1 -17 -3 -5 -11 13 -9 13
-10 0 -10 -13 0 -13 -1 0 -10 8 -5 10 -10 4 -10 -7 0 -14 -9 -17 -20 -5 -18
-14 -20 -107 -20 -65 0 -99 4 -95 10 3 6 0 10 -7 10 -9 0 -9 3 2 10 13 9 13
10 0 10 -13 0 -13 1 0 10 12 8 12 10 -5 11 l-20 0 20 9 c18 8 18 9 -5 10 l-25
2 25 8 25 8 -25 2 -25 2 25 8 25 8 -25 2 -25 2 25 8 25 8 -25 2 -25 2 25 8 25
8 -25 2 -25 2 25 8 25 8 -25 2 -25 3 25 5 25 5 -25 8 -25 7 25 2 25 2 -25 8
-25 8 25 2 25 2 -25 8 -25 8 25 2 25 2 -25 8 -25 8 25 2 25 2 -25 8 -25 8 25
2 c23 1 23 2 5 10 l-20 9 20 1 20 1 -20 9 -20 9 20 0 c17 1 17 3 5 11 -12 8
-12 10 5 10 17 0 17 2 5 10 -12 8 -10 10 10 10 20 0 22 2 10 10 -12 8 -10 10
10 10 20 0 22 2 10 10 -10 6 99 10 318 10 l332 0 0 -45z m400 0 l0 -45 -105 0
-105 0 0 45 0 45 105 0 105 0 0 -45z m400 0 l0 -45 -105 0 -105 0 0 45 0 45
105 0 105 0 0 -45z m401 18 c0 -16 2 -36 4 -45 2 -14 -4 -18 -28 -19 l-32 -1
30 -8 30 -8 -30 -2 -30 -2 30 -8 30 -8 -30 -2 c-30 -2 -30 -2 -5 -10 l25 -8
-25 -2 -25 -2 25 -8 25 -8 -25 -2 c-23 -1 -23 -2 -5 -10 l20 -9 -20 -1 -20 -1
20 -9 20 -9 -20 -1 -20 -1 20 -9 20 -9 -20 -1 -20 -1 20 -9 20 -9 -20 -1 -20
-1 20 -9 20 -9 -20 -1 -20 -1 20 -9 20 -9 -20 -1 -20 -1 20 -9 20 -9 -20 -1
-20 -1 20 -9 20 -9 -20 -1 -20 -1 20 -9 20 -9 -20 0 c-17 -1 -17 -3 -5 -11 13
-9 13 -10 0 -10 -13 0 -13 -1 0 -10 12 -8 12 -10 -5 -11 l-20 0 20 -9 20 -9
-20 0 c-17 -1 -17 -3 -5 -11 8 -5 10 -10 4 -10 -6 0 -11 -8 -11 -17 0 -40 -3
-43 -48 -43 -44 0 -45 1 -46 33 -1 17 -1 35 0 40 0 4 -5 7 -11 7 -9 0 -8 4 2
10 13 9 13 10 0 10 -13 0 -13 1 0 10 12 8 12 10 -5 11 l-20 0 20 9 20 9 -20 1
-20 1 20 9 20 9 -20 1 -20 1 20 9 20 9 -20 1 -20 1 20 9 20 9 -20 1 -20 1 20
9 20 9 -20 1 -20 1 20 9 20 9 -20 1 -20 1 20 9 20 9 -20 1 -20 1 20 9 20 9
-20 1 -20 1 20 9 c18 8 18 9 -5 10 l-25 2 25 8 25 8 -25 2 -25 2 25 8 c25 8
25 8 -5 10 l-30 2 30 8 30 8 -30 2 -30 2 30 8 30 8 -35 2 -35 3 35 7 35 7 -30
2 c-29 1 -31 3 -31 46 l0 45 103 0 103 0 1 -27z m400 17 c1 -5 2 -21 2 -35 0
-14 -1 -29 -2 -35 0 -6 -43 -10 -106 -10 l-105 0 0 45 0 45 105 0 c63 0 106
-4 106 -10z m399 -35 l0 -45 -103 0 -103 0 2 38 c1 20 2 40 3 45 1 4 46 7 101
7 l100 0 0 -45z m850 35 c-12 -8 -10 -10 10 -10 20 0 22 -2 10 -10 -12 -8 -10
-10 10 -10 20 0 22 -2 10 -10 -12 -8 -12 -10 5 -10 17 0 17 -2 5 -10 -12 -8
-12 -10 5 -11 l20 0 -20 -9 -20 -9 20 -1 20 -1 -20 -9 c-18 -8 -18 -9 5 -10
23 -1 23 -2 5 -10 l-20 -9 20 -1 20 -2 -20 -6 -20 -5 20 -8 20 -8 -20 -1 -20
-1 20 -9 20 -9 -20 -1 -20 -1 20 -9 20 -9 -20 -1 -20 -1 20 -9 20 -9 -20 -1
-20 -1 20 -9 20 -9 -20 -1 -20 -1 20 -9 20 -9 -20 -1 -20 -1 20 -9 20 -9 -20
-1 -20 -1 20 -9 c18 -8 18 -9 -5 -10 l-25 -2 25 -8 25 -8 -25 -2 c-23 -1 -23
-2 -5 -10 l20 -9 -20 -1 -20 -1 20 -9 20 -9 -20 0 c-17 -1 -17 -3 -5 -11 11
-7 11 -10 2 -10 -7 0 -10 -4 -7 -10 4 -6 -30 -10 -94 -10 -98 0 -107 3 -102
33 0 4 -5 7 -11 7 -9 0 -8 4 2 10 12 8 12 10 -5 11 l-20 0 20 9 c18 8 18 9 -5
10 -23 1 -23 2 -5 10 l20 9 -20 1 -20 1 20 9 c18 8 18 9 -5 10 l-25 2 25 8
c25 8 25 8 -5 10 -30 2 -30 2 -5 10 25 8 25 8 -5 10 -30 2 -30 2 -5 10 22 7
20 8 -15 10 l-40 3 35 7 c29 6 22 8 -40 10 l-75 3 60 7 60 7 -83 1 c-53 1 -81
6 -77 12 3 6 -1 10 -9 10 -9 0 -16 5 -16 10 0 6 -8 10 -17 11 -15 0 -15 2 2 9
17 7 14 9 -15 11 l-35 2 35 7 c26 5 9 8 -65 11 l-100 3 100 6 100 6 -130 2
-131 2 0 45 0 45 336 0 c220 0 330 -4 320 -10z m-2527 -97 c-13 -2 -33 -2 -45
0 -13 2 -3 4 22 4 25 0 35 -2 23 -4z m400 0 c-13 -2 -33 -2 -45 0 -13 2 -3 4
22 4 25 0 35 -2 23 -4z m800 0 c-13 -2 -33 -2 -45 0 -13 2 -3 4 22 4 25 0 35
-2 23 -4z m400 0 c-13 -2 -33 -2 -45 0 -13 2 -3 4 22 4 25 0 35 -2 23 -4z
m-2480 -320 c-23 -2 -64 -2 -90 0 -26 2 -8 3 42 3 50 0 71 -1 48 -3z m3410 0
c-23 -2 -64 -2 -90 0 -26 2 -7 3 42 3 50 0 71 -1 48 -3z m-3436 -20 c-20 -2
-52 -2 -70 0 -17 2 0 4 38 4 39 0 53 -2 32 -4z m3436 0 c-18 -2 -48 -2 -65 0
-18 2 -4 4 32 4 36 0 50 -2 33 -4z m-3450 -20 c-13 -2 -35 -2 -50 0 -16 2 -5
4 22 4 28 0 40 -2 28 -4z m3450 0 c-13 -2 -35 -2 -50 0 -16 2 -5 4 22 4 28 0
40 -2 28 -4z m-3449 -43 c-1 -17 3 -30 9 -30 7 0 5 -5 -3 -10 -13 -9 -13 -10
0 -10 13 0 13 -1 0 -10 -13 -9 -13 -10 0 -10 13 0 13 -1 0 -10 -13 -9 -13 -10
0 -10 9 0 11 -3 5 -8 -5 -4 -11 -20 -12 -37 -4 -49 -10 -55 -53 -55 -40 0 -46
8 -39 56 0 4 -5 11 -13 15 -10 7 -10 9 2 9 13 0 13 1 0 10 -13 9 -13 10 0 10
13 0 13 1 0 10 -13 9 -13 10 0 10 13 0 13 1 0 10 -13 9 -13 10 0 10 13 0 13 1
0 10 -11 7 -11 10 -2 10 7 0 11 3 9 8 -3 4 -1 17 4 30 7 18 16 22 52 22 42 0
43 -1 41 -30z m3483 22 c7 -4 13 -22 15 -40 1 -18 7 -32 13 -32 5 0 3 -5 -5
-10 -13 -9 -13 -10 0 -10 13 0 13 -1 0 -10 -13 -9 -13 -10 0 -10 9 0 11 -3 5
-8 -5 -4 -11 -20 -12 -37 -4 -51 -10 -56 -55 -53 -40 3 -43 5 -43 33 1 17 -4
33 -10 37 -6 5 -4 8 5 9 10 0 8 3 -5 9 l-20 9 20 1 20 1 -20 9 -20 9 20 0 c17
1 17 3 5 11 -13 9 -13 10 0 10 13 0 13 1 0 10 -8 5 -10 10 -4 10 7 0 10 13 9
30 -2 28 -1 30 34 30 20 0 41 -4 48 -8z m-3487 -427 c0 -14 0 -28 -1 -31 0 -4
5 -11 13 -15 10 -7 10 -9 -2 -9 -13 0 -13 -1 0 -10 13 -9 13 -10 0 -10 -13 0
-13 -1 0 -10 13 -9 13 -10 0 -10 -13 0 -13 -1 0 -10 8 -5 10 -10 5 -10 -6 0
-12 -12 -13 -26 -3 -39 -9 -44 -53 -44 -36 0 -39 2 -40 28 -1 15 -1 30 0 35 0
4 -5 7 -11 7 -9 0 -8 4 2 10 13 9 13 10 0 10 -13 0 -13 1 0 10 13 9 13 10 0
10 -13 0 -13 1 0 10 13 9 13 10 0 10 -12 0 -12 2 -2 9 8 4 13 11 13 15 -7 49
-1 56 44 56 41 0 45 -2 45 -25z m3496 12 c2 -7 6 -26 7 -42 1 -17 7 -33 12
-37 6 -5 4 -8 -5 -8 -13 0 -13 -1 0 -10 8 -5 10 -10 5 -10 -6 0 -11 -13 -11
-30 -3 -54 -10 -61 -56 -58 -40 3 -43 5 -43 33 1 17 -4 33 -10 37 -6 5 -4 8 5
8 13 0 13 1 0 10 -13 9 -13 10 0 11 10 0 8 3 -5 9 l-20 9 20 0 c17 1 17 3 5
11 -8 5 -10 10 -4 10 6 0 10 12 9 28 -1 15 0 30 2 35 7 12 83 8 89 -6z m-3502
-396 c4 -5 7 -21 8 -35 1 -14 7 -26 13 -26 5 0 3 -5 -5 -10 -13 -9 -13 -10 0
-10 13 0 13 -1 0 -10 -13 -9 -13 -10 0 -10 9 0 11 -3 5 -8 -5 -4 -11 -20 -12
-37 -4 -49 -10 -55 -53 -55 -37 0 -40 2 -41 28 -1 15 -1 30 0 35 0 4 -5 7 -11
7 -9 0 -8 4 2 10 13 9 13 10 0 10 -13 0 -13 1 0 10 13 9 13 10 0 10 -13 0 -13
1 0 10 13 9 13 10 0 10 -12 0 -12 2 -2 9 8 4 13 11 13 15 -7 48 -1 56 38 56
22 0 42 -4 45 -9z m3502 -4 c2 -7 6 -26 7 -42 1 -17 7 -33 12 -37 6 -5 4 -8
-5 -8 -13 0 -13 -1 0 -10 8 -5 10 -10 5 -10 -6 0 -11 -13 -11 -30 -3 -54 -10
-61 -56 -58 -40 3 -43 5 -43 33 1 17 -4 33 -10 37 -6 5 -4 8 5 9 10 0 8 3 -5
9 l-20 9 20 0 c17 1 17 3 5 11 -13 9 -13 10 0 10 13 0 13 1 0 10 -8 5 -10 10
-4 10 6 0 10 12 9 28 -1 15 0 30 2 35 7 12 83 8 89 -6z m-3480 -394 l49 -7
-35 -7 c-20 -4 32 -8 120 -10 l155 -3 -155 -6 -155 -6 175 -3 c220 -4 224 -5
228 -58 3 -38 1 -41 -29 -47 -17 -3 -109 -7 -203 -8 l-171 -2 160 -6 160 -6
-160 -3 c-98 -2 -144 -6 -120 -10 37 -7 33 -8 -38 -15 -43 -5 -80 -6 -83 -3
-3 2 -6 14 -7 26 -1 11 -6 21 -12 21 -5 0 -3 5 5 10 12 8 12 10 -5 11 l-20 0
20 9 20 9 -20 1 -20 1 20 9 20 9 -20 1 -20 1 20 9 20 9 -20 1 -20 1 20 9 c13
6 15 9 5 9 -12 1 -12 3 -2 10 8 4 13 11 13 15 -5 39 9 43 105 29z m3479 -5 c2
-7 5 -22 7 -33 2 -11 8 -23 13 -27 6 -5 4 -8 -5 -8 -13 0 -13 -1 0 -10 13 -9
13 -10 0 -10 -13 0 -13 -1 0 -10 13 -9 13 -10 0 -10 -13 0 -13 -1 0 -10 8 -5
10 -10 5 -10 -6 0 -12 -12 -13 -27 -3 -42 -14 -46 -94 -37 -68 8 -70 9 -33 15
24 4 -27 8 -125 10 l-165 3 160 6 160 6 -175 3 c-220 4 -225 5 -225 56 0 51 5
52 225 56 l175 3 -155 6 -155 6 160 4 c88 2 142 6 120 8 l-40 6 40 6 c68 12
115 11 120 -2z m-3494 -413 c1 -14 2 -33 2 -42 1 -10 6 -21 12 -25 6 -5 4 -8
-5 -8 -13 0 -13 -1 0 -10 8 -5 10 -10 4 -10 -6 0 -11 -8 -11 -17 0 -73 0 -73
-48 -73 -42 0 -45 2 -46 28 -1 15 -1 30 0 35 0 4 -5 7 -11 7 -9 0 -8 4 2 10
13 9 13 10 0 10 -13 0 -13 1 0 10 13 9 13 10 0 10 -13 0 -13 1 0 10 13 9 13
10 0 10 -12 0 -12 2 -2 9 8 4 13 11 13 15 -7 49 -1 56 44 56 41 0 45 -2 46
-25z m3495 12 c2 -7 6 -26 7 -42 1 -17 7 -33 12 -37 6 -5 4 -8 -5 -8 -13 0
-13 -1 0 -10 8 -5 10 -10 5 -10 -6 0 -11 -13 -11 -30 -3 -54 -10 -61 -56 -58
-40 3 -43 5 -43 33 1 17 -4 33 -10 37 -6 5 -4 8 5 9 10 0 8 3 -5 9 l-20 9 20
0 c17 1 17 3 5 11 -13 9 -13 10 0 10 13 0 13 1 0 10 -8 5 -10 10 -4 10 6 0 10
12 9 28 -1 15 0 30 2 35 7 12 83 8 89 -6z m-3502 -396 c4 -5 7 -21 8 -35 1
-14 7 -26 13 -26 5 0 3 -5 -5 -10 -13 -9 -13 -10 0 -10 13 0 13 -1 0 -10 -13
-9 -13 -10 0 -10 9 0 11 -3 5 -8 -6 -4 -11 -15 -12 -24 0 -10 -1 -29 -2 -43
-1 -23 -5 -25 -46 -25 -42 0 -45 2 -46 28 -1 15 -1 30 0 35 0 4 -5 7 -11 7 -9
0 -8 4 2 10 13 9 13 10 0 10 -13 0 -13 1 0 10 13 9 13 10 0 10 -13 0 -13 1 0
10 13 9 13 10 0 10 -12 0 -12 2 -2 9 8 4 13 11 13 15 -7 48 -1 56 38 56 22 0
42 -4 45 -9z m3502 -4 c2 -7 6 -26 7 -42 1 -17 7 -33 12 -37 6 -5 4 -8 -5 -8
-13 0 -13 -1 0 -10 8 -5 10 -10 5 -10 -6 0 -11 -13 -11 -30 -3 -54 -10 -61
-56 -58 -35 2 -43 7 -43 23 1 11 -4 23 -10 27 -6 5 -4 8 5 8 13 0 13 1 0 10
-13 9 -13 10 0 10 13 0 13 1 0 10 -13 9 -13 10 0 11 10 0 8 3 -5 9 l-20 9 20
0 c17 1 17 3 5 11 -8 5 -10 10 -4 10 6 0 10 12 9 28 -1 15 0 30 2 35 7 12 83
8 89 -6z m-3500 -400 c2 -7 6 -26 7 -42 1 -17 7 -33 12 -37 6 -5 4 -8 -5 -8
-13 0 -13 -1 0 -10 13 -9 13 -10 0 -10 -13 0 -13 -1 0 -10 13 -9 13 -10 0 -10
-13 0 -13 -1 0 -10 8 -5 10 -10 4 -10 -7 0 -10 -13 -9 -30 2 -29 1 -30 -42
-30 -36 0 -45 4 -52 23 -5 12 -7 25 -4 30 2 4 -2 7 -9 7 -9 0 -9 3 2 10 13 9
13 10 0 10 -13 0 -13 1 0 10 13 9 13 10 0 10 -13 0 -13 1 0 10 13 9 13 10 0
10 -13 0 -13 1 0 10 13 9 13 10 0 10 -12 0 -12 2 -2 9 8 4 13 11 13 15 -7 48
-1 56 39 56 24 0 43 -5 46 -13z m3500 0 c2 -7 6 -26 7 -42 1 -17 7 -33 12 -37
6 -5 4 -8 -5 -8 -13 0 -13 -1 0 -10 8 -5 11 -10 5 -10 -5 0 -11 -19 -12 -42
-3 -50 -13 -58 -73 -58 -33 0 -41 3 -30 10 13 9 13 10 0 10 -13 0 -13 1 0 10
13 9 13 10 0 10 -13 0 -13 1 0 10 13 9 13 10 0 10 -13 0 -13 1 0 10 13 9 13
10 0 10 -13 0 -13 1 0 10 12 8 12 10 -5 11 l-20 0 20 9 20 9 -20 1 -20 1 20 9
c13 6 15 9 5 9 -9 1 -11 4 -5 9 6 4 10 18 10 32 -1 14 0 28 2 33 7 12 83 8 89
-6z m-1751 -214 c-1 -10 1 -26 6 -35 6 -11 5 -18 -4 -21 -6 -3 -3 -6 8 -7 l20
-1 -20 -9 -20 -9 20 0 c17 -1 17 -3 5 -11 -13 -9 -13 -10 0 -10 13 0 13 -1 0
-10 -12 -8 -12 -10 5 -11 l20 0 -20 -9 -20 -9 20 -1 20 -1 -20 -9 -20 -9 20
-1 20 -1 -20 -9 -20 -9 20 -1 20 -1 -20 -9 -20 -9 20 -1 20 -1 -20 -9 -20 -9
20 -1 20 -1 -20 -9 -20 -9 20 -1 20 -1 -20 -9 -20 -9 20 -1 20 -1 -20 -9 -20
-9 20 -1 20 -1 -20 -9 c-18 -8 -18 -9 5 -10 l25 -2 -25 -8 -25 -8 25 -2 25 -2
-25 -8 c-25 -8 -25 -8 5 -10 l30 -2 -30 -8 c-29 -7 -29 -8 -4 -9 14 0 26 -7
26 -13 0 -7 2 -17 3 -23 1 -5 2 -25 1 -42 l-1 -33 -100 0 c-55 0 -100 3 -101
8 -6 41 -3 82 5 82 6 0 4 5 -4 10 -11 7 -7 10 20 11 l35 1 -30 8 -30 8 30 2
30 2 -30 8 -30 8 30 2 c30 2 30 2 5 10 l-25 8 25 2 25 2 -25 8 -25 8 25 2 c23
1 23 2 5 10 l-20 9 20 1 20 1 -20 9 -20 9 20 1 20 1 -20 9 -20 9 20 1 20 1
-20 9 -20 9 20 1 20 1 -20 9 -20 9 20 1 20 1 -20 9 -20 9 20 1 20 1 -20 9 -20
9 20 1 20 1 -20 9 -20 9 20 1 20 1 -20 9 -20 9 20 1 20 1 -20 9 -20 9 20 0
c17 1 17 3 5 11 -13 9 -13 10 0 10 13 0 13 1 0 10 -10 6 -11 10 -2 10 6 0 11
3 11 8 -7 44 1 52 50 52 41 0 49 -3 46 -17z m-1737 -10 c-15 -2 -42 -2 -60 0
-18 2 -6 4 27 4 33 0 48 -2 33 -4z m3450 0 c-15 -2 -42 -2 -60 0 -18 2 -6 4
27 4 33 0 48 -2 33 -4z m-3430 -20 c-21 -2 -55 -2 -75 0 -21 2 -4 4 37 4 41 0
58 -2 38 -4z m3419 0 c-20 -2 -52 -2 -70 0 -17 2 0 4 38 4 39 0 53 -2 32 -4z
m-3404 -20 c-23 -2 -64 -2 -90 0 -26 2 -8 3 42 3 50 0 71 -1 48 -3z m3410 0
c-23 -2 -64 -2 -90 0 -26 2 -7 3 42 3 50 0 71 -1 48 -3z m-3342 -25 c1 -7 1
-16 0 -20 0 -5 5 -8 12 -8 8 0 7 -4 -3 -10 -12 -8 -12 -10 5 -11 l20 0 -20 -9
-20 -9 20 -1 20 -1 -20 -9 c-18 -8 -18 -9 5 -10 l25 -2 -25 -8 -25 -8 25 -2
25 -2 -25 -8 c-25 -8 -25 -8 5 -10 30 -2 30 -2 5 -10 -23 -7 -23 -8 10 -10
l35 -2 -30 -8 c-27 -7 -25 -8 20 -10 l50 -3 -40 -7 c-35 -6 -31 -8 35 -10 l75
-3 -60 -7 -60 -7 75 -2 c70 -1 119 -18 103 -34 -3 -4 5 -7 18 -8 l24 -1 -25
-8 c-21 -7 -18 -8 20 -11 l45 -2 -45 -7 c-36 -6 -23 -8 60 -10 72 -2 96 -5 75
-10 -26 -7 -22 -8 23 -9 l52 -1 0 -45 0 -45 -327 0 c-216 0 -323 4 -313 10 12
7 8 10 -15 10 -23 0 -27 3 -15 10 12 8 12 10 -5 10 -17 0 -17 2 -5 10 12 8 10
10 -10 11 -23 0 -23 1 -5 9 l20 9 -20 0 c-17 1 -17 3 -5 11 12 8 12 10 -5 11
l-20 0 20 9 c18 8 18 9 -5 10 l-25 2 25 8 25 8 -25 2 -25 2 25 8 25 8 -25 2
-25 2 25 8 25 8 -25 2 -25 2 25 8 25 8 -25 2 -25 2 25 8 25 8 -25 2 -25 2 25
8 25 8 -25 2 -25 2 25 8 25 8 -25 2 -25 2 25 8 25 8 -25 2 -25 2 25 8 25 8
-25 2 -25 2 25 8 25 8 -25 2 -25 3 25 5 c23 4 24 5 5 13 l-20 8 20 1 20 1 -20
9 -20 9 20 0 c17 1 17 3 5 11 -11 7 -11 10 -2 10 7 0 10 5 7 10 -4 6 32 10 99
10 78 0 106 -3 107 -12z m3384 2 c-3 -5 0 -10 7 -10 9 0 9 -3 -2 -10 -12 -8
-12 -10 5 -11 l20 0 -20 -9 -20 -9 20 -1 20 -1 -20 -9 c-18 -8 -18 -9 5 -10
21 -2 22 -3 5 -8 l-20 -5 20 -8 20 -8 -20 -1 -20 -1 20 -9 20 -9 -20 -1 -20
-1 20 -9 20 -9 -20 -1 -20 -1 20 -9 20 -9 -20 -1 -20 -1 20 -9 20 -9 -20 -1
-20 -1 20 -9 20 -9 -20 -1 -20 -1 20 -9 20 -9 -20 -1 -20 -1 20 -9 20 -9 -20
-1 -20 -1 20 -9 20 -9 -20 -1 -20 -1 20 -9 c18 -8 18 -9 -5 -10 -23 -1 -23 -2
-5 -10 l20 -9 -20 -1 -20 -1 20 -9 20 -9 -20 0 c-17 -1 -17 -3 -5 -11 12 -8
12 -10 -5 -10 -17 0 -17 -2 -5 -10 12 -8 10 -10 -10 -10 -20 0 -22 -2 -10 -10
12 -7 8 -10 -15 -11 -26 0 -27 -2 -10 -9 12 -5 -118 -9 -312 -9 -183 -1 -333
2 -334 7 -1 4 -2 24 -3 45 l-2 37 60 1 c53 1 56 3 26 9 -25 5 -5 8 70 10 79 2
95 5 65 10 l-40 7 40 2 c32 2 36 4 20 11 -18 8 -18 9 5 10 14 1 19 4 12 7 -10
4 -9 8 5 19 11 8 49 14 98 15 l80 2 -65 7 -65 7 80 3 c68 2 74 4 40 10 l-40 7
45 3 c42 2 43 3 15 10 l-30 8 35 2 c33 2 33 3 10 10 -25 8 -25 8 5 10 30 2 30
2 5 10 l-25 8 25 2 25 2 -25 8 -25 8 25 2 c23 1 23 2 5 10 -18 8 -18 9 5 10
23 1 23 2 5 10 l-20 9 20 1 20 1 -20 9 -20 9 20 1 c11 1 15 4 8 7 -10 3 -10 7
0 18 15 17 212 22 202 5z m-2572 -297 c-13 -2 -35 -2 -50 0 -16 2 -5 4 22 4
28 0 40 -2 28 -4z m405 0 c-16 -2 -40 -2 -55 0 -16 2 -3 4 27 4 30 0 43 -2 28
-4z m800 0 c-16 -2 -40 -2 -55 0 -16 2 -3 4 27 4 30 0 43 -2 28 -4z m400 0
c-16 -2 -40 -2 -55 0 -16 2 -3 4 27 4 30 0 43 -2 28 -4z m-1528 -58 l0 -45
-105 0 -105 0 0 45 0 45 105 0 105 0 0 -45z m400 0 l0 -45 -105 0 -105 0 0 45
0 45 105 0 105 0 0 -45z m801 38 c5 -39 5 -64 -1 -73 -4 -7 -42 -10 -106 -8
l-99 3 -3 43 -3 42 105 0 c58 0 106 -3 107 -7z m399 -38 l0 -45 -100 0 c-55 0
-100 3 -101 8 -1 4 -2 24 -3 45 l-2 37 103 0 103 0 0 -45z m-2358 -62 c-51 -2
-132 -2 -180 0 -48 1 -6 3 93 3 99 0 138 -2 87 -3z m266 0 c-10 -2 -28 -2 -40
0 -13 2 -5 4 17 4 22 1 32 -1 23 -4z m405 0 c-7 -2 -21 -2 -30 0 -10 3 -4 5
12 5 17 0 24 -2 18 -5z m400 0 c-7 -2 -21 -2 -30 0 -10 3 -4 5 12 5 17 0 24
-2 18 -5z m410 0 c-13 -2 -35 -2 -50 0 -16 2 -5 4 22 4 28 0 40 -2 28 -4z
m390 0 c-7 -2 -21 -2 -30 0 -10 3 -4 5 12 5 17 0 24 -2 18 -5z m815 0 c-10 -2
-28 -2 -40 0 -13 2 -5 4 17 4 22 1 32 -1 23 -4z m404 0 c-51 -2 -132 -2 -180
0 -48 1 -6 3 93 3 99 0 138 -2 87 -3z m-3159 -20 c-13 -2 -33 -2 -45 0 -13 2
-3 4 22 4 25 0 35 -2 23 -4z m3114 0 c-20 -2 -52 -2 -70 0 -17 2 0 4 38 4 39
0 53 -2 32 -4z"/>
<path d="M628 3743 c6 -2 18 -2 25 0 6 3 1 5 -13 5 -14 0 -19 -2 -12 -5z"/>
<path d="M628 3723 c6 -2 18 -2 25 0 6 3 1 5 -13 5 -14 0 -19 -2 -12 -5z"/>
<path d="M628 3703 c6 -2 18 -2 25 0 6 3 1 5 -13 5 -14 0 -19 -2 -12 -5z"/>
<path d="M628 3683 c6 -2 18 -2 25 0 6 3 1 5 -13 5 -14 0 -19 -2 -12 -5z"/>
<path d="M3283 3743 c9 -2 23 -2 30 0 6 3 -1 5 -18 5 -16 0 -22 -2 -12 -5z"/>
<path d="M3283 3723 c9 -2 23 -2 30 0 6 3 -1 5 -18 5 -16 0 -22 -2 -12 -5z"/>
<path d="M3283 3703 c9 -2 23 -2 30 0 6 3 -1 5 -18 5 -16 0 -22 -2 -12 -5z"/>
<path d="M3283 3683 c9 -2 23 -2 30 0 6 3 -1 5 -18 5 -16 0 -22 -2 -12 -5z"/>
<path d="M633 263 c9 -2 23 -2 30 0 6 3 -1 5 -18 5 -16 0 -22 -2 -12 -5z"/>
<path d="M628 243 c6 -2 18 -2 25 0 6 3 1 5 -13 5 -14 0 -19 -2 -12 -5z"/>
<path d="M628 223 c6 -2 18 -2 25 0 6 3 1 5 -13 5 -14 0 -19 -2 -12 -5z"/>
<path d="M628 203 c6 -2 18 -2 25 0 6 3 1 5 -13 5 -14 0 -19 -2 -12 -5z"/>
<path d="M628 183 c6 -2 18 -2 25 0 6 3 1 5 -13 5 -14 0 -19 -2 -12 -5z"/>
<path d="M3213 263 c9 -2 23 -2 30 0 6 3 -1 5 -18 5 -16 0 -22 -2 -12 -5z"/>
<path d="M3273 263 c9 -2 25 -2 35 0 9 3 1 5 -18 5 -19 0 -27 -2 -17 -5z"/>
<path d="M3283 243 c9 -2 23 -2 30 0 6 3 -1 5 -18 5 -16 0 -22 -2 -12 -5z"/>
<path d="M3283 223 c9 -2 23 -2 30 0 6 3 -1 5 -18 5 -16 0 -22 -2 -12 -5z"/>
<path d="M3283 203 c9 -2 23 -2 30 0 6 3 -1 5 -18 5 -16 0 -22 -2 -12 -5z"/>
<path d="M3283 183 c9 -2 25 -2 35 0 9 3 1 5 -18 5 -19 0 -27 -2 -17 -5z"/>
</g>
</svg>
